<?xml version="1.0" encoding="UTF-8"?>
<!DOCTYPE svg PUBLIC "-//W3C//DTD SVG 1.1//EN" "http://www.w3.org/Graphics/SVG/1.1/DTD/svg11.dtd">
<svg xmlns="http://www.w3.org/2000/svg" version="1.1" width="512px" height="512px" style="shape-rendering:geometricPrecision; text-rendering:geometricPrecision; image-rendering:optimizeQuality; fill-rule:evenodd; clip-rule:evenodd" xmlns:xlink="http://www.w3.org/1999/xlink">
<g><path style="opacity:0.963" fill="#000000" d="M 421.5,-0.5 C 440.167,-0.5 458.833,-0.5 477.5,-0.5C 495.833,3.83333 507.167,15.1667 511.5,33.5C 511.5,52.1667 511.5,70.8333 511.5,89.5C 506.548,173.704 476.048,247.038 420,309.5C 405.585,324.251 390.918,338.584 376,352.5C 374,377.833 372,403.167 370,428.5C 368.57,439.527 363.404,448.361 354.5,455C 325.743,474.368 296.743,493.201 267.5,511.5C 262.5,511.5 257.5,511.5 252.5,511.5C 244.091,508.862 237.925,503.529 234,495.5C 229.725,472.181 225.558,448.848 221.5,425.5C 207.584,428.438 195.251,425.271 184.5,416C 154.667,386.167 124.833,356.333 95,326.5C 85.7289,315.749 82.5622,303.416 85.5,289.5C 62.1519,285.442 38.8185,281.275 15.5,277C 7.47135,273.075 2.13801,266.909 -0.5,258.5C -0.5,253.5 -0.5,248.5 -0.5,243.5C 17.799,214.257 36.6323,185.257 56,156.5C 62.6395,147.596 71.4728,142.43 82.5,141C 108.163,138.949 133.829,136.949 159.5,135C 190.135,97.734 226.135,67.0673 267.5,43C 315.853,17.6001 367.186,3.10013 421.5,-0.5 Z M 446.5,29.5 C 455.495,29.9997 464.495,30.4997 473.5,31C 477,31.8333 479.167,34 480,37.5C 487.619,164.737 440.452,265.904 338.5,341C 323.288,351.859 307.288,361.526 290.5,370C 289.5,370.667 288.5,370.667 287.5,370C 238.667,321.167 189.833,272.333 141,223.5C 140.333,222.5 140.333,221.5 141,220.5C 178.329,148.838 233.162,95.0042 305.5,59C 350.75,40.251 397.75,30.4177 446.5,29.5 Z M 342.5,116.5 C 367.308,114.842 384.141,125.508 393,148.5C 397.681,176.14 386.848,194.64 360.5,204C 341.37,207.626 325.87,201.792 314,186.5C 300.929,164.095 303.762,143.929 322.5,126C 328.601,121.448 335.268,118.281 342.5,116.5 Z M 134.5,168.5 C 116.513,196.146 102.513,225.813 92.5,257.5C 72.5499,255.457 52.5499,252.623 32.5,249C 49.1081,223.394 66.1081,198.061 83.5,173C 100.372,170.556 117.372,169.056 134.5,168.5 Z M 126.5,253.5 C 170.299,296.799 213.965,340.299 257.5,384C 244.455,388.681 231.122,392.348 217.5,395C 214.036,395.817 210.702,395.483 207.5,394C 177.333,363.833 147.167,333.667 117,303.5C 115.517,300.298 115.183,296.964 116,293.5C 118.792,279.962 122.292,266.628 126.5,253.5 Z M 342.5,376.5 C 342.043,393.613 340.543,410.613 338,427.5C 312.939,444.892 287.606,461.892 262,478.5C 258.377,458.45 255.543,438.45 253.5,418.5C 285.187,408.487 314.854,394.487 342.5,376.5 Z"/></g>
<g><path style="opacity:0.962" fill="#000000" d="M 339.5,85.5 C 376.825,82.9016 403.658,98.235 420,131.5C 434.025,176.451 420.192,209.617 378.5,231C 339.478,243.297 308.312,232.797 285,199.5C 266.785,162.038 272.951,129.204 303.5,101C 314.444,93.1917 326.444,88.0251 339.5,85.5 Z M 342.5,116.5 C 335.268,118.281 328.601,121.448 322.5,126C 303.762,143.929 300.929,164.095 314,186.5C 325.87,201.792 341.37,207.626 360.5,204C 386.848,194.64 397.681,176.14 393,148.5C 384.141,125.508 367.308,114.842 342.5,116.5 Z"/></g>
<g><path style="opacity:0.954" fill="#000000" d="M -0.5,411.5 C -0.5,408.167 -0.5,404.833 -0.5,401.5C 17.5736,381.924 36.2403,362.757 55.5,344C 68.5216,339.348 76.5216,343.848 79.5,357.5C 79.0307,361.074 77.8641,364.408 76,367.5C 58.8333,384.667 41.6667,401.833 24.5,419C 13.6796,424.265 5.34628,421.765 -0.5,411.5 Z"/></g>
<g><path style="opacity:0.941" fill="#000000" d="M 20.5,511.5 C 16.5,511.5 12.5,511.5 8.5,511.5C 7.01307,510.196 5.3464,509.03 3.5,508C 2.30342,505.985 0.970083,504.151 -0.5,502.5C -0.5,498.5 -0.5,494.5 -0.5,490.5C 31.5755,456.923 64.2422,423.757 97.5,391C 104.254,385.562 111.254,385.229 118.5,390C 125.656,397.439 126.156,405.272 120,413.5C 87.2435,446.758 54.0768,479.425 20.5,511.5 Z"/></g>
<g><path style="opacity:0.955" fill="#000000" d="M 109.5,511.5 C 106.167,511.5 102.833,511.5 99.5,511.5C 89.2351,505.654 86.7351,497.32 92,486.5C 109.167,469.333 126.333,452.167 143.5,435C 151.659,429.888 159.159,430.721 166,437.5C 169.737,443.454 170.07,449.454 167,455.5C 148.243,474.76 129.076,493.426 109.5,511.5 Z"/></g>
</svg>
